# xmcd
#
# Track frame offsets:
# 150
# 13879
# 27412
# 41331
# 59585
# 73686
# 87603
# 104590
# 118716
# 136555
# 152891
# 168986
#
# Disc length: 2443 seconds
#
#
# Revision: 0
# Processed by: cddbd v1.5.1PL2 Copyright (c) Steve Scherf et al.
# Submitted via: FreeRIP 2.945 
#
DISCID=a509890c
DTITLE=Jeff Bates  - Good People
DYEAR=2005
DGENRE=Country
TTITLE0=Good People.
TTITLE1=Designated Drinker
TTITLE2=No Shame
TTITLE3=That'll Get You Ten
TTITLE4=Woman He Walked On
TTITLE5=Rub It In
TTITLE6=One Second Change
TTITLE7=What I Know
TTITLE8=I Can't Write That
TTITLE9=Blood Sweat And Beer
TTITLE10=Mama was alot like Jesus
TTITLE11=Long Slow Kisses
EXTD=
EXTT0=
EXTT1=
EXTT2=
EXTT3=
EXTT4=
EXTT5=
EXTT6=
EXTT7=
EXTT8=
EXTT9=
EXTT10=
EXTT11=
PLAYORDER=
